<svg width="17" height="16" viewBox="0 0 17 16" fill="none" xmlns="http://www.w3.org/2000/svg">
<path d="M14.5 3.98665C12.28 3.76665 10.0467 3.65332 7.82 3.65332C6.5 3.65332 5.18 3.71999 3.86 3.85332L2.5 3.98665" stroke="#191919" stroke-linecap="round" stroke-linejoin="round"/>
<path d="M6.16666 3.31337L6.31332 2.44004C6.41999 1.80671 6.49999 1.33337 7.62666 1.33337H9.37332C10.5 1.33337 10.5867 1.83337 10.6867 2.44671L10.8333 3.31337" stroke="#191919" stroke-linecap="round" stroke-linejoin="round"/>
<path d="M13.0667 6.09338L12.6333 12.8067C12.56 13.8534 12.5 14.6667 10.64 14.6667H6.35999C4.49999 14.6667 4.43999 13.8534 4.36665 12.8067L3.93332 6.09338" stroke="#191919" stroke-linecap="round" stroke-linejoin="round"/>
<path d="M7.38666 11H9.60666" stroke="#191919" stroke-linecap="round" stroke-linejoin="round"/>
<path d="M6.83334 8.33337H10.1667" stroke="#191919" stroke-linecap="round" stroke-linejoin="round"/>
</svg>
