<svg width="17" height="16" viewBox="0 0 17 16" fill="none" xmlns="http://www.w3.org/2000/svg">
<path d="M11.1667 1.33337H5.83334C3.16668 1.33337 1.83334 2.66671 1.83334 5.33337V14C1.83334 14.3667 2.13334 14.6667 2.50001 14.6667H11.1667C13.8333 14.6667 15.1667 13.3334 15.1667 10.6667V5.33337C15.1667 2.66671 13.8333 1.33337 11.1667 1.33337Z" stroke="#191919" stroke-linecap="round" stroke-linejoin="round"/>
<path d="M9.10667 5.22665L5.64667 8.68664C5.51334 8.81998 5.38667 9.07998 5.36001 9.26665L5.17334 10.5866C5.10668 11.0666 5.44001 11.4 5.92001 11.3333L7.23999 11.1466C7.42666 11.12 7.68668 10.9933 7.82001 10.86L11.28 7.39998C11.8733 6.80664 12.16 6.11331 11.28 5.23331C10.4 4.34665 9.70667 4.62665 9.10667 5.22665Z" stroke="#191919" stroke-miterlimit="10" stroke-linecap="round" stroke-linejoin="round"/>
<path d="M8.61334 5.71997C8.90668 6.76664 9.72668 7.5933 10.78 7.88664" stroke="#191919" stroke-miterlimit="10" stroke-linecap="round" stroke-linejoin="round"/>
</svg>
