<svg width="143" height="45" viewBox="0 0 143 45" fill="none" xmlns="http://www.w3.org/2000/svg">
    <path
        d="M121.613 12.1733L127.755 10.4349V0.742371L93.896 10.3181V39.9645L100.038 38.2276V14.963L121.613 8.861V12.1733Z"
        fill="#1251DD" />
    <path
        d="M121.613 28.5766V32.1563L100.148 38.2276V44.6094L127.755 36.8013V26.4708C126.678 27.0149 125.542 27.4653 124.351 27.8019L121.613 28.5766Z"
        fill="#1251DD" />
    <path
        d="M101.265 32.6067L111.257 30.0337L123.965 26.4401C127.972 25.3073 131.328 22.8511 133.619 19.6295L110.545 26.1542L111.474 24.6648L134.577 18.1309C135.233 16.9812 135.763 15.7546 136.152 14.4727L113.907 20.7638L114.835 19.2745L136.498 13.1478C136.77 11.909 136.916 10.6271 136.916 9.31906L111.257 16.5739L101.265 32.6067Z"
        fill="#00D4FF" />
    <path d="M135.493 1.86132V8.2431L142.073 6.38329V-3.05176e-05L135.493 1.86132Z"
        fill="#1251DD" />
    <path
        d="M6.52637 25.4657H10.4504V21.9981H9.99392C8.07877 21.9981 6.52637 23.5505 6.52637 25.4657Z"
        fill="#1251DD" />
    <path
        d="M15.9866 21.9981H15.5301C13.6149 21.9981 12.0625 23.5505 12.0625 25.4657H15.9866V21.9981Z"
        fill="#1251DD" />
    <path
        d="M17.6682 17.0535V13.6397H19.8001C21.5001 13.6397 22.8788 12.261 22.8788 10.561H17.6667C15.9667 10.561 14.588 11.9397 14.588 13.6397V17.0611L3.07869 16.992C1.38026 16.9874 0 18.363 0 20.063L14.5803 20.1337C16.2849 20.1367 17.6682 18.7565 17.6682 17.0535Z"
        fill="#1251DD" />
    <path
        d="M32.6774 10.561H25.9268V17.3117C25.9268 19.0116 27.3055 20.3904 29.0054 20.3904H32.6774V25.4641C34.3774 25.4641 35.7561 24.0854 35.7561 22.3854V20.3904V13.6397C35.7561 11.9397 34.3774 10.561 32.6774 10.561ZM32.6774 17.3117H29.0054V13.6397H32.6774V17.3117Z"
        fill="#1251DD" />
    <path
        d="M84.3864 17.4946L84.454 13.9487C84.4863 12.2256 83.0984 10.8116 81.3753 10.8116H75.9312C75.9312 12.5115 77.3099 13.8902 79.0098 13.8902H81.3753L81.3092 17.4316L68.0477 17.3916V10.458H67.8064C66.1064 10.458 64.7277 11.8368 64.7277 13.5367V17.3809L60.0428 17.3655V10.458H59.8015C58.1015 10.458 56.7228 11.8368 56.7228 13.5367V17.3547L42.3592 17.3163C40.6607 17.3132 39.2805 18.6873 39.2759 20.3858V20.3904L81.3046 20.5149C82.9831 20.5195 84.3557 19.1746 84.3864 17.4946Z"
        fill="#1251DD" />
    <path
        d="M52.7878 21.9981H52.3313C50.4162 21.9981 48.8638 23.5505 48.8638 25.4657H52.7878V21.9981Z"
        fill="#1251DD" />
    <path
        d="M54.4004 25.4657H58.3244V21.9981H57.8679C55.9528 21.9981 54.4004 23.5505 54.4004 25.4657Z"
        fill="#1251DD" />
    <path
        d="M74.5156 25.4657H78.4397V21.9981H77.9832C76.068 21.9981 74.5156 23.5505 74.5156 25.4657Z"
        fill="#1251DD" />
    <path
        d="M48.9255 10.3673H48.469C46.5539 10.3673 45.0015 11.9197 45.0015 13.8349H48.9255V10.3673Z"
        fill="#1251DD" />
    <path
        d="M54.4617 10.3673H54.0052C52.09 10.3673 50.5376 11.9197 50.5376 13.8349H54.4617V10.3673Z"
        fill="#1251DD" />
    <path
        d="M57.9512 29.5511V37.8142H55.8839V32.6498C55.8839 32.0795 55.4212 31.6169 54.851 31.6169C54.2807 31.6169 53.8181 32.0795 53.8181 32.6498V37.8142H51.7523V29.5511C50.6118 29.5511 49.6865 30.4764 49.6865 31.6169V38.8487C49.6865 39.4189 50.1492 39.8815 50.7194 39.8815H55.8839H58.9841C59.5543 39.8815 60.017 39.4189 60.017 38.8487V31.6169C60.0154 30.4749 59.0917 29.5511 57.9512 29.5511Z"
        fill="#1251DD" />
    <path
        d="M82.7432 29.5511V33.6827H76.5443V29.5511C75.4038 29.5511 74.4785 30.4764 74.4785 31.6169V34.7156C74.4785 35.2858 74.9412 35.7485 75.5114 35.7485H78.6116V38.8487C78.6116 39.4189 79.0743 39.8815 79.6445 39.8815C80.2147 39.8815 80.6774 39.4189 80.6774 38.8487V35.7485H83.7761C84.3463 35.7485 84.8089 35.2858 84.8089 34.7156V31.6169C84.8089 30.4749 83.8837 29.5511 82.7432 29.5511Z"
        fill="#1251DD" />
    <path
        d="M45.5518 31.6169C46.6922 31.6169 47.6175 30.6916 47.6175 29.5511H38.32C37.7498 29.5511 37.2871 30.0138 37.2871 30.584V38.8487C37.2871 39.4189 37.7498 39.8815 38.32 39.8815H47.6175V39.88C47.6175 38.7395 46.6922 37.8142 45.5518 37.8142H39.3529V35.7485H44.5189C45.0891 35.7485 45.5518 35.2858 45.5518 34.7156C45.5518 34.1453 45.0891 33.6827 44.5189 33.6827H39.3529V31.6169H45.5518Z"
        fill="#1251DD" />
    <path
        d="M8.45996 31.6169C9.60044 31.6169 10.5257 30.6916 10.5257 29.5511H1.2282C0.657961 29.5511 0.195312 30.0138 0.195312 30.584V38.8487C0.195312 39.4189 0.657961 39.8815 1.2282 39.8815H9.49285C10.0631 39.8815 10.5257 39.4189 10.5257 38.8487V34.7171C10.5257 34.1469 10.0631 33.6842 9.49285 33.6842H4.32841C4.32841 34.8247 5.2537 35.75 6.39418 35.75H8.45996V37.8158H2.26109V31.6169H8.45996Z"
        fill="#1251DD" />
    <path
        d="M27.055 31.6169H29.1208V38.8487C29.1208 39.4189 29.5835 39.8815 30.1537 39.8815C30.7239 39.8815 31.1866 39.4189 31.1866 38.8487V31.6169H33.2539C34.3944 31.6169 35.3197 30.6916 35.3197 29.5511H24.9893C24.9893 30.6916 25.9146 31.6169 27.055 31.6169Z"
        fill="#1251DD" />
    <path
        d="M71.3801 29.5511H63.1154C62.5452 29.5511 62.0825 30.0138 62.0825 30.584V39.8815C63.223 39.8815 64.1483 38.9562 64.1483 37.8158V35.7485H70.3472V37.8158C70.3472 38.9562 71.2725 39.8815 72.4129 39.8815V30.584C72.4129 30.0122 71.9503 29.5511 71.3801 29.5511ZM70.3472 33.6827H64.1483V31.6169H70.3472V33.6827Z"
        fill="#1251DD" />
    <path
        d="M21.8552 29.5511H13.5905C13.0203 29.5511 12.5576 30.0138 12.5576 30.584V39.8815C13.6981 39.8815 14.6234 38.9562 14.6234 37.8158V35.7485H20.8223V37.8158C20.8223 38.9562 21.7476 39.8815 22.888 39.8815V30.584C22.888 30.0122 22.4254 29.5511 21.8552 29.5511ZM20.8223 33.6827H14.6234V31.6169H20.8223V33.6827Z"
        fill="#1251DD" />
</svg>
